<svg width="125" height="40" viewBox="0 0 125 40" fill="none" xmlns="http://www.w3.org/2000/svg">
<path d="M125 9.38574H120.651V32.4494H125V9.38574Z" fill="#B69266"/>
<path d="M105.661 21.9314L103.375 25.3279V29.4266H91.9461C92.0749 29.1836 92.2085 28.9431 92.3154 28.6977C92.5171 27.9907 92.6191 27.1817 92.6191 26.3751V15.8867H88.3771V24.1545C88.3771 27.7891 86.9631 29.9101 84.4388 29.9101C83.5302 29.9101 82.6215 29.6064 81.8125 29.101L81.5088 29.4047C82.1137 30.3134 83.0248 31.1224 83.9335 31.6277C84.8421 32.1331 85.9524 32.4368 87.0652 32.4368C87.7722 32.4368 88.5812 32.3347 89.2858 32.0335C89.9928 31.7298 90.5977 31.3265 91.1031 30.7215C91.4238 30.3377 91.6886 29.9076 91.9267 29.4679L94.6332 32.4538H112.59L115.331 29.4314H105.661V21.9363V21.9314Z" fill="#B69266"/>
<path d="M114.04 19.6259C112.923 18.1244 109.905 17.6288 108.38 18.3966C106.854 19.1643 106.069 20.4131 105.663 21.9291C111.144 18.4864 114.789 26.0278 112.456 29.4243C113.069 29.3344 117.913 24.8324 114.04 19.6235V19.6259Z" fill="#B69266"/>
<path d="M76.2998 15.8848H76.1565V29.4003H26.0835V9.38574H21.7371V32.4494H26.0835V32.4348H80.6001V15.8848H76.2998Z" fill="#B69266"/>
<path d="M93.4774 5.53679L89.6274 9.38672L93.4774 13.2366L97.3273 9.38671L93.4774 5.53679Z" fill="#B69266"/>
<path d="M85.4486 5.53874L81.5986 9.38867L85.4486 13.2386L89.2985 9.38867L85.4486 5.53874Z" fill="#B69266"/>
<path d="M73.5494 5.53778L69.6995 9.3877L73.5494 13.2376L77.3993 9.3877L73.5494 5.53778Z" fill="#B69266"/>
<path d="M69.6995 -0.000318713L65.8496 3.84961L69.6995 7.69953L73.5495 3.8496L69.6995 -0.000318713Z" fill="#B69266"/>
<path d="M65.5196 5.53777L61.6697 9.3877L65.5196 13.2376L69.3695 9.38769L65.5196 5.53777Z" fill="#B69266"/>
<path d="M14.8541 29.4028C14.8541 33.0228 11.9192 35.9577 8.29918 35.9577C4.67916 35.9577 1.89004 33.1856 1.74427 29.7113L0.896362 30.0417V30.9237C0.896362 35.9383 4.96829 40.0005 9.98287 40.0005C12.4853 40.0005 14.7569 38.98 16.4017 37.345C18.0465 35.7002 19.0572 33.4382 19.0572 30.9261V9.38574H14.8517V29.4052L14.8541 29.4028Z" fill="#B69266"/>
</svg>
